<svg width="132" height="32" viewBox="0 0 132 32" fill="none" xmlns="http://www.w3.org/2000/svg">
<path d="M4.16 4.8V11.2H5.168C5.872 10.08 7.248 9.312 9.104 9.312C13.04 9.312 15.456 12.512 15.456 16.624C15.456 21.104 12.8 23.952 9.136 23.952C7.248 23.952 5.872 23.216 5.2 22.032H4.16V23.68H0V4.8H4.16ZM7.744 20.144C9.904 20.144 11.328 18.608 11.328 16.608C11.328 14.64 9.904 13.104 7.744 13.104C5.552 13.104 4.16 14.64 4.16 16.608C4.16 18.608 5.552 20.144 7.744 20.144Z" fill="black"/>
<path d="M33.856 13.392V9.584H35.824V6.32H39.952V9.584H43.504V13.392H39.952V17.744C39.952 19.248 40.384 19.872 41.872 19.872H43.52V23.68H41.744C37.392 23.68 35.84 21.872 35.84 17.792V13.392H33.856Z" fill="black"/>
<path d="M51.04 14.976H54.4V14.928C54.4 13.376 53.408 12.704 51.936 12.704C50.464 12.704 49.712 13.408 49.472 14.368H45.472C45.744 11.44 47.776 9.312 52.016 9.312C56.288 9.312 58.56 11.472 58.56 15.008V23.68H54.4V22.448H53.392C52.736 23.216 51.744 23.952 49.776 23.952C46.816 23.952 45.296 21.984 45.296 19.488C45.296 16.64 47.12 14.976 51.04 14.976ZM51.584 20.528C52.592 20.528 53.52 20.336 54.4 19.792V17.664H51.552C50.208 17.664 49.424 18.16 49.424 19.088C49.424 20.032 50.224 20.528 51.584 20.528Z" fill="black"/>
<path d="M60.944 23.68V9.584H65.104V10.784H66.112C66.848 9.904 67.696 9.312 69.536 9.312C72.688 9.312 74.384 11.36 74.384 14.896V23.68H70.256V15.792C70.256 14.016 69.488 13.104 67.744 13.104C66.48 13.104 65.696 13.456 65.12 13.904V23.68H60.944Z" fill="black"/>
<path d="M78.848 4.224C80.192 4.224 81.12 5.12 81.12 6.416C81.12 7.616 80.192 8.544 78.848 8.544C77.504 8.544 76.544 7.616 76.544 6.416C76.544 5.12 77.504 4.224 78.848 4.224ZM80.928 9.584V23.68H76.768V9.584H80.928Z" fill="black"/>
<path d="M93.264 11.2H94.272V9.584H98.432V27.776H94.272V22.032H93.232C92.544 23.216 91.184 23.952 89.296 23.952C85.632 23.952 82.976 21.104 82.976 16.624C82.976 12.512 85.392 9.312 89.328 9.312C91.184 9.312 92.56 10.08 93.264 11.2ZM90.688 20.144C92.88 20.144 94.272 18.608 94.272 16.608C94.272 14.64 92.88 13.104 90.688 13.104C88.528 13.104 87.104 14.64 87.104 16.608C87.104 18.608 88.528 20.144 90.688 20.144Z" fill="black"/>
<path d="M100.816 18.368V9.584H104.944V17.472C104.944 19.248 105.712 20.16 107.456 20.16C108.72 20.16 109.504 19.808 110.08 19.36V9.584H114.24V23.68H110.08V22.48H109.072C108.336 23.36 107.488 23.952 105.648 23.952C102.512 23.952 100.816 21.904 100.816 18.368Z" fill="black"/>
<path d="M116.304 16.608C116.304 12.496 119.312 9.296 123.856 9.296C128.56 9.296 131.36 12.528 131.36 16.464C131.36 16.896 131.328 17.28 131.312 17.552H120.304C120.544 19.44 121.808 20.528 123.856 20.528C125.408 20.528 126.544 19.984 127.008 18.976H131.168C130.352 21.856 127.808 23.936 123.856 23.936C119.312 23.952 116.304 20.72 116.304 16.608ZM127.168 14.912C126.736 13.632 125.632 12.688 123.856 12.688C122.112 12.688 120.896 13.584 120.464 14.912H127.168Z" fill="black"/>
<path d="M24.016 22.912C23.92 22.128 24.48 21.408 25.28 21.312C26.064 21.216 26.784 21.776 26.88 22.576C26.976 23.36 26.416 24.08 25.616 24.176C25.552 24.176 25.504 24.192 25.44 24.192C24.72 24.176 24.096 23.632 24.016 22.912ZM22.016 23.728C21.264 23.44 20.896 22.608 21.184 21.872C21.472 21.12 22.304 20.752 23.04 21.04C23.776 21.328 24.16 22.16 23.872 22.896C23.648 23.472 23.104 23.824 22.528 23.824C22.352 23.824 22.176 23.792 22.016 23.728ZM27.008 22.512C26.56 21.856 26.72 20.96 27.376 20.512C28.032 20.064 28.928 20.224 29.376 20.88C29.824 21.536 29.664 22.432 29.008 22.88C28.752 23.056 28.464 23.136 28.192 23.136C27.728 23.136 27.28 22.912 27.008 22.512ZM19.024 21.664C18.496 21.072 18.544 20.16 19.136 19.632C19.728 19.104 20.64 19.152 21.168 19.744C21.696 20.336 21.648 21.248 21.056 21.776C20.784 22.016 20.448 22.144 20.096 22.144C19.696 22.16 19.312 21.984 19.024 21.664ZM29.472 20.768C28.768 20.4 28.496 19.52 28.864 18.816C29.232 18.112 30.112 17.84 30.816 18.208C31.52 18.576 31.792 19.456 31.424 20.16C31.168 20.656 30.672 20.928 30.144 20.928C29.904 20.928 29.68 20.88 29.472 20.768ZM17.328 18.464C17.136 17.696 17.616 16.912 18.384 16.72C19.152 16.528 19.936 17.008 20.128 17.776C20.32 18.544 19.84 19.328 19.072 19.52C18.96 19.552 18.848 19.568 18.72 19.568C18.08 19.552 17.488 19.12 17.328 18.464ZM29.392 16.64C29.392 16.624 29.392 16.624 29.392 16.64C29.392 16.624 29.392 16.624 29.392 16.64C29.392 15.824 30.032 15.184 30.832 15.184C31.632 15.184 32.272 15.824 32.272 16.624V16.64C32.272 17.44 31.632 18.08 30.832 18.08C30.048 18.08 29.392 17.424 29.392 16.64ZM18.384 16.576C17.616 16.384 17.136 15.6 17.328 14.832C17.52 14.064 18.304 13.584 19.072 13.776C19.84 13.968 20.32 14.736 20.128 15.52C19.968 16.176 19.376 16.624 18.736 16.624C18.608 16.608 18.496 16.608 18.384 16.576ZM28.848 14.432C28.48 13.728 28.736 12.864 29.44 12.48C30.144 12.112 31.008 12.368 31.392 13.072C31.76 13.776 31.504 14.64 30.8 15.024C30.592 15.136 30.352 15.2 30.128 15.2C29.616 15.2 29.12 14.928 28.848 14.432ZM19.136 13.648C18.544 13.12 18.48 12.208 19.008 11.616C19.536 11.024 20.448 10.96 21.04 11.488C21.632 12.016 21.696 12.928 21.168 13.52C20.88 13.84 20.48 14 20.08 14C19.744 14 19.408 13.888 19.136 13.648ZM27.36 12.752C26.704 12.304 26.544 11.408 26.992 10.752C27.44 10.096 28.336 9.936 28.992 10.384C29.648 10.832 29.808 11.728 29.36 12.384C29.088 12.784 28.624 13.008 28.176 13.008C27.888 13.008 27.6 12.928 27.36 12.752ZM21.152 11.408C20.864 10.672 21.248 9.824 21.984 9.552C22.72 9.264 23.552 9.648 23.84 10.384C24.128 11.12 23.744 11.952 23.008 12.24C22.832 12.304 22.672 12.336 22.496 12.336C21.92 12.336 21.376 11.984 21.152 11.408ZM25.248 11.968C24.464 11.872 23.888 11.152 23.984 10.368C24.08 9.584 24.8 9.008 25.584 9.104C26.368 9.2 26.944 9.92 26.848 10.704C26.768 11.44 26.144 11.968 25.424 11.968C25.36 11.968 25.312 11.968 25.248 11.968Z" fill="black"/>
<path d="M22.496 20.464C21.808 20.064 21.568 19.184 21.968 18.496C22.368 17.808 23.248 17.568 23.936 17.968C24.624 18.368 24.864 19.248 24.464 19.936C24.192 20.4 23.712 20.656 23.216 20.656C22.96 20.656 22.72 20.592 22.496 20.464ZM24.944 19.936C24.544 19.248 24.784 18.368 25.472 17.968C26.16 17.568 27.04 17.808 27.44 18.496C27.84 19.184 27.6 20.064 26.912 20.464C26.688 20.592 26.432 20.656 26.192 20.656C25.696 20.656 25.2 20.4 24.944 19.936ZM20.272 16.64C20.272 15.84 20.912 15.2 21.712 15.2C22.512 15.2 23.152 15.84 23.152 16.64C23.152 17.44 22.512 18.08 21.712 18.08C20.928 18.08 20.272 17.44 20.272 16.64ZM26.224 16.672C26.224 16.656 26.224 16.64 26.224 16.624C26.224 15.824 26.864 15.184 27.664 15.184C28.464 15.184 29.104 15.824 29.104 16.624V16.64C29.104 17.44 28.464 18.08 27.664 18.08C26.88 18.08 26.256 17.44 26.224 16.672ZM21.952 14.784C21.552 14.096 21.792 13.216 22.48 12.816C23.168 12.416 24.048 12.656 24.448 13.344C24.848 14.032 24.608 14.912 23.92 15.312C23.696 15.44 23.44 15.504 23.2 15.504C22.704 15.504 22.224 15.248 21.952 14.784ZM25.456 15.296C24.768 14.896 24.528 14.016 24.928 13.328C25.328 12.64 26.208 12.4 26.896 12.8C27.584 13.2 27.824 14.08 27.424 14.768C27.152 15.232 26.672 15.488 26.176 15.488C25.936 15.488 25.68 15.424 25.456 15.296Z" fill="black"/>
</svg>
